<svg width="20" height="20" viewBox="0 0 20 20" fill="none" xmlns="http://www.w3.org/2000/svg">
<g id="vuesax/linear/search-normal">
<g id="search-normal">
<path id="Vector (Stroke)" fill-rule="evenodd" clip-rule="evenodd" d="M9.54158 1.52087C5.1118 1.52087 1.52075 5.11192 1.52075 9.54171C1.52075 13.9715 5.1118 17.5625 9.54158 17.5625C13.9714 17.5625 17.5624 13.9715 17.5624 9.54171C17.5624 5.11192 13.9714 1.52087 9.54158 1.52087ZM0.145752 9.54171C0.145752 4.35253 4.35241 0.145874 9.54158 0.145874C14.7308 0.145874 18.9374 4.35253 18.9374 9.54171C18.9374 14.7309 14.7308 18.9375 9.54158 18.9375C4.35241 18.9375 0.145752 14.7309 0.145752 9.54171Z" fill="#060606"/>
<path id="Vector (Stroke)_2" fill-rule="evenodd" clip-rule="evenodd" d="M16.8471 16.8472C17.1156 16.5788 17.5509 16.5788 17.8194 16.8472L19.6527 18.6806C19.9212 18.9491 19.9212 19.3844 19.6527 19.6528C19.3842 19.9213 18.9489 19.9213 18.6804 19.6528L16.8471 17.8195C16.5786 17.551 16.5786 17.1157 16.8471 16.8472Z" fill="#060606"/>
</g>
</g>
</svg>
