<svg width="20" height="20" viewBox="0 0 20 20" fill="none" xmlns="http://www.w3.org/2000/svg">
<g id="vuesax/linear/category-2">
<g id="category-2">
<path id="Vector (Stroke)" fill-rule="evenodd" clip-rule="evenodd" d="M12.0346 1.03474C12.6674 0.402 13.5606 0.145874 14.5833 0.145874H16.4166C17.4392 0.145874 18.3325 0.402 18.9652 1.03474C19.598 1.66748 19.8541 2.56073 19.8541 3.58337V5.41671C19.8541 6.43935 19.598 7.33261 18.9652 7.96534C18.3325 8.59808 17.4392 8.85421 16.4166 8.85421H14.5833C13.5606 8.85421 12.6674 8.59808 12.0346 7.96534C11.4019 7.33261 11.1458 6.43935 11.1458 5.41671V3.58337C11.1458 2.56073 11.4019 1.66748 12.0346 1.03474ZM13.0069 2.00701C12.723 2.29094 12.5208 2.77268 12.5208 3.58337V5.41671C12.5208 6.2274 12.723 6.70914 13.0069 6.99307C13.2908 7.277 13.7726 7.47921 14.5833 7.47921H16.4166C17.2273 7.47921 17.709 7.277 17.9929 6.99307C18.2769 6.70914 18.4791 6.2274 18.4791 5.41671V3.58337C18.4791 2.77268 18.2769 2.29094 17.9929 2.00701C17.709 1.72308 17.2273 1.52087 16.4166 1.52087H14.5833C13.7726 1.52087 13.2908 1.72308 13.0069 2.00701Z" fill="white"/>
<path id="Vector (Stroke)_2" fill-rule="evenodd" clip-rule="evenodd" d="M1.03462 12.0347C1.66735 11.402 2.56061 11.1459 3.58325 11.1459H5.41658C6.43923 11.1459 7.33248 11.402 7.96522 12.0347C8.59796 12.6675 8.85408 13.5607 8.85408 14.5834V16.4167C8.85408 17.4393 8.59796 18.3326 7.96522 18.9653C7.33248 19.5981 6.43923 19.8542 5.41658 19.8542H3.58325C2.56061 19.8542 1.66735 19.5981 1.03462 18.9653C0.401878 18.3326 0.145752 17.4393 0.145752 16.4167V14.5834C0.145752 13.5607 0.401878 12.6675 1.03462 12.0347ZM2.00689 13.007C1.72296 13.2909 1.52075 13.7727 1.52075 14.5834V16.4167C1.52075 17.2274 1.72296 17.7091 2.00689 17.9931C2.29082 18.277 2.77256 18.4792 3.58325 18.4792H5.41658C6.22728 18.4792 6.70902 18.277 6.99295 17.9931C7.27688 17.7091 7.47908 17.2274 7.47908 16.4167V14.5834C7.47908 13.7727 7.27688 13.2909 6.99295 13.007C6.70902 12.7231 6.22728 12.5209 5.41658 12.5209H3.58325C2.77256 12.5209 2.29082 12.7231 2.00689 13.007Z" fill="white"/>
<path id="Vector (Stroke)_3" fill-rule="evenodd" clip-rule="evenodd" d="M4.49992 1.52087C2.85457 1.52087 1.52075 2.85469 1.52075 4.50004C1.52075 6.14539 2.85457 7.47921 4.49992 7.47921C6.14527 7.47921 7.47908 6.14539 7.47908 4.50004C7.47908 2.85469 6.14527 1.52087 4.49992 1.52087ZM0.145752 4.50004C0.145752 2.0953 2.09518 0.145874 4.49992 0.145874C6.90466 0.145874 8.85408 2.0953 8.85408 4.50004C8.85408 6.90478 6.90466 8.85421 4.49992 8.85421C2.09518 8.85421 0.145752 6.90478 0.145752 4.50004Z" fill="white"/>
<path id="Vector (Stroke)_4" fill-rule="evenodd" clip-rule="evenodd" d="M15.4999 12.5209C13.8546 12.5209 12.5208 13.8547 12.5208 15.5C12.5208 17.1454 13.8546 18.4792 15.4999 18.4792C17.1453 18.4792 18.4791 17.1454 18.4791 15.5C18.4791 13.8547 17.1453 12.5209 15.4999 12.5209ZM11.1458 15.5C11.1458 13.0953 13.0952 11.1459 15.4999 11.1459C17.9047 11.1459 19.8541 13.0953 19.8541 15.5C19.8541 17.9048 17.9047 19.8542 15.4999 19.8542C13.0952 19.8542 11.1458 17.9048 11.1458 15.5Z" fill="white"/>
</g>
</g>
</svg>
