<svg width="22" height="22" viewBox="0 0 22 22" fill="none" xmlns="http://www.w3.org/2000/svg">
<g id="Building / 24 / Outline">
<path id="Vector" d="M12.8334 7.33334H13.75C13.9932 7.33334 14.2263 7.23677 14.3982 7.06486C14.5701 6.89295 14.6667 6.65979 14.6667 6.41668C14.6667 6.17356 14.5701 5.9404 14.3982 5.7685C14.2263 5.59659 13.9932 5.50001 13.75 5.50001H12.8334C12.5903 5.50001 12.3571 5.59659 12.1852 5.7685C12.0133 5.9404 11.9167 6.17356 11.9167 6.41668C11.9167 6.65979 12.0133 6.89295 12.1852 7.06486C12.3571 7.23677 12.5903 7.33334 12.8334 7.33334ZM12.8334 11H13.75C13.9932 11 14.2263 10.9034 14.3982 10.7315C14.5701 10.5596 14.6667 10.3265 14.6667 10.0833C14.6667 9.84023 14.5701 9.60707 14.3982 9.43516C14.2263 9.26325 13.9932 9.16668 13.75 9.16668H12.8334C12.5903 9.16668 12.3571 9.26325 12.1852 9.43516C12.0133 9.60707 11.9167 9.84023 11.9167 10.0833C11.9167 10.3265 12.0133 10.5596 12.1852 10.7315C12.3571 10.9034 12.5903 11 12.8334 11ZM8.25004 7.33334H9.16671C9.40982 7.33334 9.64298 7.23677 9.81489 7.06486C9.9868 6.89295 10.0834 6.65979 10.0834 6.41668C10.0834 6.17356 9.9868 5.9404 9.81489 5.7685C9.64298 5.59659 9.40982 5.50001 9.16671 5.50001H8.25004C8.00693 5.50001 7.77377 5.59659 7.60186 5.7685C7.42995 5.9404 7.33337 6.17356 7.33337 6.41668C7.33337 6.65979 7.42995 6.89295 7.60186 7.06486C7.77377 7.23677 8.00693 7.33334 8.25004 7.33334ZM8.25004 11H9.16671C9.40982 11 9.64298 10.9034 9.81489 10.7315C9.9868 10.5596 10.0834 10.3265 10.0834 10.0833C10.0834 9.84023 9.9868 9.60707 9.81489 9.43516C9.64298 9.26325 9.40982 9.16668 9.16671 9.16668H8.25004C8.00693 9.16668 7.77377 9.26325 7.60186 9.43516C7.42995 9.60707 7.33337 9.84023 7.33337 10.0833C7.33337 10.3265 7.42995 10.5596 7.60186 10.7315C7.77377 10.9034 8.00693 11 8.25004 11ZM19.25 18.3333H18.3334V2.75001C18.3334 2.5069 18.2368 2.27374 18.0649 2.10183C17.893 1.92992 17.6598 1.83334 17.4167 1.83334H4.58337C4.34026 1.83334 4.1071 1.92992 3.93519 2.10183C3.76328 2.27374 3.66671 2.5069 3.66671 2.75001V18.3333H2.75004C2.50693 18.3333 2.27377 18.4299 2.10186 18.6018C1.92995 18.7737 1.83337 19.0069 1.83337 19.25C1.83337 19.4931 1.92995 19.7263 2.10186 19.8982C2.27377 20.0701 2.50693 20.1667 2.75004 20.1667H19.25C19.4932 20.1667 19.7263 20.0701 19.8982 19.8982C20.0701 19.7263 20.1667 19.4931 20.1667 19.25C20.1667 19.0069 20.0701 18.7737 19.8982 18.6018C19.7263 18.4299 19.4932 18.3333 19.25 18.3333ZM11.9167 18.3333H10.0834V14.6667H11.9167V18.3333ZM16.5 18.3333H13.75V13.75C13.75 13.5069 13.6535 13.2737 13.4816 13.1018C13.3096 12.9299 13.0765 12.8333 12.8334 12.8333H9.16671C8.92359 12.8333 8.69043 12.9299 8.51853 13.1018C8.34662 13.2737 8.25004 13.5069 8.25004 13.75V18.3333H5.50004V3.66668H16.5V18.3333Z" fill="white"/>
</g>
</svg>
