<svg width="20" height="20" viewBox="0 0 20 20" fill="none" xmlns="http://www.w3.org/2000/svg">
<g id="vuesax/linear/people">
<g id="people">
<g id="Group">
<path id="Vector (Stroke)" fill-rule="evenodd" clip-rule="evenodd" d="M15.4175 1.52083C14.4864 1.52083 13.74 2.26719 13.74 3.19833C13.74 4.09476 14.4294 4.81722 15.3022 4.87383C15.3754 4.86733 15.4504 4.86733 15.5236 4.87383C16.3949 4.81728 17.0873 4.09574 17.095 3.19588C17.0937 2.27329 16.3461 1.52083 15.4175 1.52083ZM12.365 3.19833C12.365 1.5078 13.727 0.145828 15.4175 0.145828C17.1098 0.145828 18.47 1.51871 18.47 3.19833V3.20324H18.47C18.4582 4.85226 17.1602 6.19113 15.5249 6.25038C15.4875 6.25174 15.45 6.25003 15.4129 6.24529C15.3758 6.25003 15.3383 6.25174 15.3009 6.25038C13.6665 6.19116 12.365 4.85202 12.365 3.19833Z" fill="#F1F1F1"/>
<path id="Vector (Stroke)_2" fill-rule="evenodd" clip-rule="evenodd" d="M14.4097 7.11365C15.8033 6.86951 17.3924 7.10227 18.5476 7.86882L18.5488 7.86964C19.3384 8.39604 19.8244 9.15881 19.8244 10.0092C19.8244 10.8595 19.3384 11.6223 18.5488 12.1487C17.4022 12.9162 15.8321 13.1481 14.442 12.9147C14.0675 12.8518 13.8149 12.4973 13.8778 12.1228C13.9407 11.7484 14.2952 11.4958 14.6696 11.5587C15.7907 11.7469 16.9883 11.539 17.7849 11.0055L17.7861 11.0046C18.289 10.6694 18.4494 10.2955 18.4494 10.0092C18.4494 9.72299 18.2892 9.34929 17.7868 9.01414C16.9803 8.47931 15.7647 8.27221 14.6469 8.46802C14.2729 8.53354 13.9166 8.28347 13.8511 7.90947C13.7856 7.53547 14.0357 7.17917 14.4097 7.11365Z" fill="#F1F1F1"/>
</g>
<g id="Group_2">
<path id="Vector (Stroke)_3" fill-rule="evenodd" clip-rule="evenodd" d="M1.50244 3.19833C1.50244 1.5187 2.86268 0.145828 4.55494 0.145828C6.24547 0.145828 7.60744 1.5078 7.60744 3.19833C7.60744 4.85202 6.30591 6.19116 4.6715 6.25038C4.63409 6.25174 4.59664 6.25003 4.55953 6.24529C4.52242 6.25003 4.48497 6.25174 4.44755 6.25038C2.81228 6.19113 1.51424 4.85226 1.50246 3.20324L1.50244 3.19833ZM2.87744 3.19588C2.88512 4.09575 3.57757 4.81728 4.44884 4.87383C4.52204 4.86733 4.59702 4.86733 4.67022 4.87383C5.54299 4.81722 6.23244 4.09476 6.23244 3.19833C6.23244 2.26719 5.48608 1.52083 4.55494 1.52083C3.62636 1.52083 2.87876 2.27329 2.87744 3.19588Z" fill="#F1F1F1"/>
<path id="Vector (Stroke)_4" fill-rule="evenodd" clip-rule="evenodd" d="M2.18568 9.01412C2.99213 8.47931 4.20772 8.27221 5.32548 8.46802C5.69948 8.53354 6.05578 8.28347 6.1213 7.90947C6.18682 7.53547 5.93674 7.17917 5.56274 7.11365C4.16912 6.86951 2.58005 7.10227 1.42483 7.86882L1.42483 7.86882L1.42359 7.86964C0.633987 8.39604 0.148071 9.15881 0.148071 10.0092C0.148071 10.8593 0.633732 11.6219 1.42297 12.1483C2.56969 12.9161 4.14007 13.1481 5.53044 12.9147C5.90489 12.8518 6.15749 12.4973 6.09462 12.1228C6.03176 11.7484 5.67724 11.4958 5.30278 11.5587C4.18173 11.7469 2.98411 11.539 2.18755 11.0055L2.1863 11.0046C1.68341 10.6694 1.52307 10.2955 1.52307 10.0092C1.52307 9.72299 1.68327 9.34928 2.18568 9.01412Z" fill="#F1F1F1"/>
</g>
<g id="Group_3">
<path id="Vector (Stroke)_5" fill-rule="evenodd" clip-rule="evenodd" d="M9.91737 8.36833C8.98623 8.36833 8.23987 9.11469 8.23987 10.0458C8.23987 10.9423 8.92932 11.6647 9.80209 11.7213C9.87632 11.7147 9.95237 11.7148 10.0266 11.7216C10.8908 11.6721 11.5872 10.9481 11.5949 10.0434C11.5935 9.12079 10.8459 8.36833 9.91737 8.36833ZM6.86487 10.0458C6.86487 8.35531 8.22684 6.99333 9.91737 6.99333C11.6096 6.99333 12.9699 8.36621 12.9699 10.0458V10.0507H12.9699C12.9581 11.6953 11.6634 13.0504 10.0198 13.098C9.98402 13.0991 9.94825 13.0973 9.91278 13.0928C9.87567 13.0975 9.83822 13.0992 9.80081 13.0979C8.16639 13.0387 6.86487 11.6995 6.86487 10.0458Z" fill="#F1F1F1"/>
<path id="Vector (Stroke)_6" fill-rule="evenodd" clip-rule="evenodd" d="M10.0033 13.8821C11.0745 13.8821 12.1826 14.1488 13.0488 14.7263C13.8384 15.2527 14.3243 16.0155 14.3243 16.8658C14.3243 17.7161 13.8385 18.4788 13.0491 19.0051C12.1792 19.5867 11.0715 19.8565 9.99991 19.8565C8.92833 19.8565 7.82064 19.5867 6.95076 19.0052C6.16133 18.4788 5.67554 17.7161 5.67554 16.8658C5.67554 16.0155 6.16145 15.2527 6.95106 14.7263L6.95271 14.7252L6.95271 14.7252C7.82261 14.1489 8.93203 13.8821 10.0033 13.8821ZM7.71296 15.8709C7.2107 16.206 7.05054 16.5797 7.05054 16.8658C7.05054 17.1521 7.21087 17.526 7.71377 17.8613L7.71459 17.8618C8.3113 18.2609 9.13754 18.4815 9.99991 18.4815C10.8623 18.4815 11.6885 18.2609 12.2852 17.8618L12.2861 17.8613C12.789 17.526 12.9493 17.1521 12.9493 16.8658C12.9493 16.5795 12.789 16.2056 12.2861 15.8704C11.6948 15.4762 10.8687 15.2571 10.0033 15.2571C9.13862 15.2571 8.30966 15.4759 7.71296 15.8709Z" fill="#F1F1F1"/>
</g>
</g>
</g>
</svg>
