<svg width="18" height="18" viewBox="0 0 18 18" fill="none" xmlns="http://www.w3.org/2000/svg">
<g id="vuesax/linear/task">
<g id="task">
<path id="Vector (Stroke)" fill-rule="evenodd" clip-rule="evenodd" d="M7.39587 15.875C7.39587 15.4953 7.70368 15.1875 8.08337 15.1875H17.25C17.6297 15.1875 17.9375 15.4953 17.9375 15.875C17.9375 16.2547 17.6297 16.5625 17.25 16.5625H8.08337C7.70368 16.5625 7.39587 16.2547 7.39587 15.875Z" fill="white"/>
<path id="Vector (Stroke)_2" fill-rule="evenodd" clip-rule="evenodd" d="M7.39587 9.45833C7.39587 9.07863 7.70368 8.77083 8.08337 8.77083H17.25C17.6297 8.77083 17.9375 9.07863 17.9375 9.45833C17.9375 9.83802 17.6297 10.1458 17.25 10.1458H8.08337C7.70368 10.1458 7.39587 9.83802 7.39587 9.45833Z" fill="white"/>
<path id="Vector (Stroke)_3" fill-rule="evenodd" clip-rule="evenodd" d="M7.39587 3.04166C7.39587 2.66196 7.70368 2.35416 8.08337 2.35416H17.25C17.6297 2.35416 17.9375 2.66196 17.9375 3.04166C17.9375 3.42135 17.6297 3.72916 17.25 3.72916H8.08337C7.70368 3.72916 7.39587 3.42135 7.39587 3.04166Z" fill="white"/>
<path id="Vector (Stroke)_4" fill-rule="evenodd" clip-rule="evenodd" d="M4.9028 0.722192C5.17129 0.990678 5.17129 1.42598 4.9028 1.69446L2.1528 4.44446C1.88432 4.71295 1.44902 4.71295 1.18053 4.44446L0.263864 3.5278C-0.00462136 3.25931 -0.00462136 2.82401 0.263864 2.55553C0.532349 2.28704 0.96765 2.28704 1.23614 2.55553L1.66667 2.98606L3.93053 0.722192C4.19902 0.453707 4.63432 0.453707 4.9028 0.722192Z" fill="white"/>
<path id="Vector (Stroke)_5" fill-rule="evenodd" clip-rule="evenodd" d="M4.9028 7.13886C5.17129 7.40735 5.17129 7.84265 4.9028 8.11114L2.1528 10.8611C1.88432 11.1296 1.44902 11.1296 1.18053 10.8611L0.263864 9.94447C-0.00462136 9.67598 -0.00462136 9.24068 0.263864 8.9722C0.532349 8.70371 0.96765 8.70371 1.23614 8.9722L1.66667 9.40273L3.93053 7.13886C4.19902 6.87038 4.63432 6.87038 4.9028 7.13886Z" fill="white"/>
<path id="Vector (Stroke)_6" fill-rule="evenodd" clip-rule="evenodd" d="M4.9028 13.5555C5.17129 13.824 5.17129 14.2593 4.9028 14.5278L2.1528 17.2778C1.88432 17.5463 1.44902 17.5463 1.18053 17.2778L0.263864 16.3611C-0.00462136 16.0926 -0.00462136 15.6573 0.263864 15.3889C0.532349 15.1204 0.96765 15.1204 1.23614 15.3889L1.66667 15.8194L3.93053 13.5555C4.19902 13.287 4.63432 13.287 4.9028 13.5555Z" fill="white"/>
</g>
</g>
</svg>
