<svg width="22" height="22" viewBox="0 0 22 22" fill="none" xmlns="http://www.w3.org/2000/svg">
<g id="icon">
<path d="M11.37 7.88H16.62H11.37Z" fill="#26BBF6"/>
<path d="M5.38 7.88L6.13 8.63L8.38 6.38" fill="#26BBF6"/>
<path d="M11.37 14.88H16.62H11.37Z" fill="#26BBF6"/>
<path d="M5.38 14.88L6.13 15.63L8.38 13.38" fill="#26BBF6"/>
<path d="M8 21H14C19 21 21 19 21 14V8C21 3 19 1 14 1H8C3 1 1 3 1 8V14C1 19 3 21 8 21Z" fill="#26BBF6"/>
<path d="M11.37 7.88H16.62M5.38 7.88L6.13 8.63L8.38 6.38M11.37 14.88H16.62M5.38 14.88L6.13 15.63L8.38 13.38M8 21H14C19 21 21 19 21 14V8C21 3 19 1 14 1H8C3 1 1 3 1 8V14C1 19 3 21 8 21Z" stroke="#292D32" stroke-width="1.5" stroke-linecap="round" stroke-linejoin="round"/>
</g>
</svg>
